<?xml version="1.0" encoding="utf-8"?>
<!-- Generator: Adobe Illustrator 22.1.0, SVG Export Plug-In . SVG Version: 6.00 Build 0)  -->
<svg version="1.1" id="Camada_1" xmlns="http://www.w3.org/2000/svg" xmlns:xlink="http://www.w3.org/1999/xlink" x="0px" y="0px"
	 viewBox="0 0 533 95" style="enable-background:new 0 0 533 95;" xml:space="preserve">
<style type="text/css">
	.st0{fill:#E40520;}
	.st1{fill:#FFFFFF;}
	.st2{fill:#706F6F;}
</style>
<polygon class="st0" points="241.7,10 9.6,10 9.6,85 241.7,85 "/>
<path class="st1" d="M9.6,70.1h15.8v2H9.6V70.1L9.6,70.1z M9.6,57.5h15.8v2H9.6V57.5L9.6,57.5z M9.6,44.4h15.8v2H9.6V44.4L9.6,44.4z
	 M9.6,31.5h15.8v2H9.6V31.5L9.6,31.5z M9.6,18.9h15.8v2H9.6V18.9L9.6,18.9z"/>
<path class="st1" d="M226,72.1h15.8v2H226V72.1L226,72.1z M226,59.5h15.8v2H226V59.5L226,59.5z M226,46.4h15.8v2H226V46.4L226,46.4z
	 M226,33.5h15.8v2H226V33.5L226,33.5z M226,20.9h15.8v2H226V20.9L226,20.9z"/>
<path class="st1" d="M83.4,37.3c3.8-13.5-7.2-17.6-18.7-17.6c-11.7,0-24.1,3.6-27.5,16.9c-1.3,6,0.4,11.2,5.5,13.6
	c11,5.3,22.8,3.7,21.2,11.3c-0.8,3.7-5.7,5.6-9.3,5.6c-5.6,0-8.8-2.9-7.6-8.1H31.4c-3,15.2,7.7,19,20.7,19
	c12.9,0,25.7-5.6,28.2-17.4c3.2-15.1-10.2-16-19.1-18.4c-3.9-1.1-8.5-2.4-7.7-6.5c0.6-2.8,4.2-5.1,7.7-5.1c2.6,0,4.5,0.6,5.6,1.8
	s1.5,2.8,1,5L83.4,37.3L83.4,37.3z M128.2,76.8l2.3-10.8h-27.1l2.5-11.9h24.9l2.3-10.8h-24.9l2.5-11.5h27.1l2.3-10.8H97.5L85.6,76.8
	H128.2L128.2,76.8z M191,37.3c3.8-13.5-7.2-17.6-18.7-17.6c-11.7,0-24.1,3.6-27.5,16.9c-1.3,6,0.4,11.2,5.5,13.6
	c11,5.3,22.8,3.7,21.2,11.3c-0.8,3.7-5.7,5.6-9.3,5.6c-5.6,0-8.8-2.9-7.6-8.1H139c-3,15.2,7.7,19,20.7,19c12.9,0,25.7-5.6,28.2-17.4
	c3.2-15.1-10.2-16-19.1-18.4c-3.9-1.1-8.5-2.4-7.7-6.5c0.6-2.8,4.2-5.1,7.7-5.1c2.6,0,4.5,0.6,5.6,1.8s1.5,2.8,1,5L191,37.3
	L191,37.3z M208.5,76.8l11.9-55.9h-15.5L193,76.8H208.5L208.5,76.8z"/>
<g>
	<path class="st2" d="M283.7,38l1.4-1.6c2,1.8,4,2.8,6.7,2.8c2.6,0,4.4-1.4,4.4-3.3v-0.1c0-1.8-1-2.9-5.1-3.7
		c-4.5-1-6.6-2.4-6.6-5.7v-0.1c0-3.1,2.7-5.3,6.4-5.3c2.9,0,4.9,0.8,6.9,2.4l-1.3,1.7c-1.8-1.5-3.6-2.1-5.7-2.1
		c-2.5,0-4.2,1.4-4.2,3.2v0.1c0,1.8,1,2.9,5.3,3.8c4.4,1,6.4,2.5,6.4,5.5v0.1c0,3.4-2.8,5.5-6.7,5.5C288.6,41.1,286.1,40.1,283.7,38
		z"/>
	<path class="st2" d="M302.4,21.3h14.2v2h-12V30h10.7v2h-10.7v6.9h12.1v2h-14.3L302.4,21.3L302.4,21.3z"/>
	<path class="st2" d="M320.6,21.3h8.4c2.4,0,4.3,0.7,5.6,2c1,1,1.5,2.3,1.5,3.9v0.1c0,3.2-2.2,5.2-5.3,5.7l6,8H334l-5.7-7.6h-5.6V41
		h-2.2V21.3H320.6z M328.8,31.2c2.9,0,5-1.5,5-4v-0.1c0-2.4-1.8-3.9-5-3.9h-6v8H328.8z"/>
	<path class="st2" d="M338,21.3h2.5l7,16.9l7-16.9h2.4L348.4,41h-2L338,21.3z"/>
	<path class="st2" d="M360.3,21.3h2.2v19.6h-2.2V21.3z"/>
	<path class="st2" d="M373.2,44.2l2.2-3.1c-5-0.6-8.5-4.8-8.5-10V31c0-5.5,4.1-10.1,9.9-10.1c3.6,0,5.7,1.3,7.6,3.1l-1.5,1.6
		c-1.7-1.6-3.5-2.7-6.2-2.7c-4.3,0-7.6,3.5-7.6,8V31c0,4.5,3.3,8.1,7.6,8.1c2.7,0,4.5-1,6.3-2.8l1.5,1.4c-2,2-4.1,3.3-7.4,3.4
		l-1.8,4L373.2,44.2z"/>
	<path class="st2" d="M386.4,31.1L386.4,31.1c0-5.5,4.1-10.2,10-10.2s10,4.7,10,10.1v0.1c0,5.4-4.1,10.1-10,10.1
		S386.4,36.5,386.4,31.1z M404.1,31.1L404.1,31.1c0-4.5-3.2-8.1-7.7-8.1s-7.7,3.6-7.7,8v0.1c0,4.5,3.2,8.1,7.7,8.1
		C400.9,39.1,404.1,35.6,404.1,31.1z"/>
	<path class="st2" d="M417,38l1.4-1.6c2,1.8,4,2.8,6.7,2.8c2.6,0,4.4-1.4,4.4-3.3v-0.1c0-1.8-1-2.9-5.1-3.7c-4.5-1-6.6-2.4-6.6-5.7
		v-0.1c0-3.1,2.7-5.3,6.4-5.3c2.9,0,4.9,0.8,6.9,2.4l-1.3,1.7c-1.8-1.5-3.6-2.1-5.7-2.1c-2.5,0-4.2,1.4-4.2,3.2v0.1
		c0,1.8,1,2.9,5.3,3.8c4.4,1,6.4,2.5,6.4,5.5v0.1c0,3.4-2.8,5.5-6.7,5.5C421.9,41.1,419.4,40.1,417,38z"/>
	<path class="st2" d="M434.8,31.1L434.8,31.1c0-5.5,4.1-10.2,10-10.2s10,4.7,10,10.1v0.1c0,5.4-4.1,10.1-10,10.1
		S434.8,36.5,434.8,31.1z M452.5,31.1L452.5,31.1c0-4.5-3.2-8.1-7.7-8.1s-7.7,3.6-7.7,8v0.1c0,4.5,3.2,8.1,7.7,8.1
		C449.3,39.1,452.5,35.6,452.5,31.1z"/>
	<path class="st2" d="M458.1,31.1L458.1,31.1c0-5.6,4.1-10.2,9.9-10.2c3.6,0,5.7,1.3,7.6,3.1l-1.5,1.6c-1.7-1.6-3.5-2.7-6.2-2.7
		c-4.3,0-7.6,3.5-7.6,8V31c0,4.5,3.3,8.1,7.6,8.1c2.7,0,4.5-1,6.3-2.8l1.5,1.4c-2,2.1-4.3,3.4-7.8,3.4
		C462.2,41.2,458.1,36.7,458.1,31.1z"/>
	<path class="st2" d="M479.2,21.3h2.2v19.6h-2.2V21.3z"/>
	<path class="st2" d="M493.9,21.1h2.1l8.9,19.7h-2.4l-2.3-5.2h-10.7l-2.3,5.2h-2.3L493.9,21.1z M499.3,33.7l-4.5-10l-4.5,10H499.3z"
		/>
	<path class="st2" d="M508.2,21.3h2.2v17.6h11v2h-13.2V21.3z"/>
	<path class="st2" d="M285,51.3h6.8c6.2,0,10.4,4.2,10.4,9.7v0.1c0,5.5-4.3,9.8-10.4,9.8H285V51.3z M291.8,68.8c5,0,8.1-3.4,8.1-7.7
		V61c0-4.3-3.2-7.8-8.1-7.8h-4.6v15.5L291.8,68.8L291.8,68.8z"/>
	<path class="st2" d="M312.3,51.1h2.1l8.9,19.7h-2.4l-2.3-5.2H308l-2.3,5.2h-2.3L312.3,51.1z M317.8,63.7l-4.5-10l-4.5,10H317.8z"/>
	<path class="st2" d="M334.6,51.3h2.2v19.6h-2.2V51.3z"/>
	<path class="st2" d="M342,51.3h2.1L356.4,67V51.3h2.2v19.6h-1.8l-12.7-16.1v16.1H342V51.3z"/>
	<path class="st2" d="M363.6,51.3h6.8c6.2,0,10.4,4.2,10.4,9.7v0.1c0,5.5-4.3,9.8-10.4,9.8h-6.8V51.3z M370.4,68.8
		c5,0,8.1-3.4,8.1-7.7V61c0-4.3-3.2-7.8-8.1-7.8h-4.6v15.5L370.4,68.8L370.4,68.8z"/>
	<path class="st2" d="M384.6,62.6V51.3h2.2v11.3c0,4.2,2.2,6.6,6,6.6c3.6,0,5.9-2.2,5.9-6.5V51.3h2.2v11.2c0,5.7-3.3,8.7-8.2,8.7
		C387.9,71.2,384.6,68.2,384.6,62.6z M394.7,46l2.2,1l-3.2,2.6h-1.8L394.7,46z"/>
	<path class="st2" d="M404.3,68l1.4-1.6c2,1.8,4,2.8,6.7,2.8c2.6,0,4.4-1.4,4.4-3.3v-0.1c0-1.8-1-2.9-5.1-3.7
		c-4.5-1-6.6-2.4-6.6-5.7v-0.1c0-3.1,2.7-5.3,6.4-5.3c2.9,0,4.9,0.8,6.9,2.4l-1.3,1.7c-1.8-1.5-3.6-2.1-5.7-2.1
		c-2.5,0-4.2,1.4-4.2,3.2v0.1c0,1.8,1,2.9,5.3,3.8c4.4,1,6.4,2.5,6.4,5.5v0.1c0,3.4-2.8,5.5-6.7,5.5C409.2,71.1,406.7,70.1,404.3,68
		z"/>
	<path class="st2" d="M427.7,53.3h-6.6v-2h15.4v2H430v17.6h-2.2L427.7,53.3L427.7,53.3z"/>
	<path class="st2" d="M440.1,51.3h8.4c2.4,0,4.3,0.7,5.6,2c1,1,1.5,2.3,1.5,3.9v0.1c0,3.2-2.2,5.2-5.3,5.7l6,8h-2.7l-5.7-7.6h-5.6
		V71h-2.2L440.1,51.3L440.1,51.3z M448.4,61.2c2.9,0,5-1.5,5-4v-0.1c0-2.4-1.8-3.9-5-3.9h-6v8H448.4z"/>
	<path class="st2" d="M460,51.3h2.2v19.6H460V51.3z"/>
	<path class="st2" d="M474.7,51.1h2.1l8.9,19.7h-2.4l-2.3-5.2h-10.7l-2.3,5.2h-2.3L474.7,51.1z M480.1,63.7l-4.5-10l-4.5,10H480.1z"
		/>
</g>
<rect x="264.5" y="0" class="st0" width="2" height="95"/>
</svg>
